<?xml version="1.0" encoding="UTF-8" standalone="no"?>
<!-- Created with Inkscape (http://www.inkscape.org/) -->

<svg
   xmlns:dc="http://purl.org/dc/elements/1.1/"
   xmlns:cc="http://creativecommons.org/ns#"
   xmlns:rdf="http://www.w3.org/1999/02/22-rdf-syntax-ns#"
   xmlns:svg="http://www.w3.org/2000/svg"
   xmlns="http://www.w3.org/2000/svg"
   xmlns:sodipodi="http://sodipodi.sourceforge.net/DTD/sodipodi-0.dtd"
   xmlns:inkscape="http://www.inkscape.org/namespaces/inkscape"
   width="105.86394mm"
   height="132.0493mm"
   viewBox="0 0 52.931968 66.024652"
   version="1.1"
   id="svg8"
   inkscape:version="0.92.3 (2405546, 2018-03-11)"
   sodipodi:docname="chaos_logo.svg"
   inkscape:export-filename="/home/mertyildiran/Downloads/chaos-logo/chaos_logo.png"
   inkscape:export-xdpi="287.92001"
   inkscape:export-ydpi="287.92001">
  <defs
     id="defs2">
    <filter
       y="-0.25"
       height="1.5"
       inkscape:menu-tooltip="Darkens the edge with an inner blur and adds a flexible glow"
       inkscape:menu="Shadows and Glows"
       inkscape:label="Dark and Glow"
       style="color-interpolation-filters:sRGB"
       id="filter1115">
      <feGaussianBlur
         stdDeviation="5"
         result="result6"
         id="feGaussianBlur1105" />
      <feComposite
         result="result8"
         in="SourceGraphic"
         operator="atop"
         in2="result6"
         id="feComposite1107" />
      <feComposite
         result="result9"
         operator="over"
         in2="SourceAlpha"
         in="result8"
         id="feComposite1109" />
      <feColorMatrix
         values="1 0 0 0 0 0 1 0 0 0 0 0 1 0 0 0 0 0 1 0 "
         result="result10"
         id="feColorMatrix1111" />
      <feBlend
         in="result10"
         mode="normal"
         in2="result6"
         id="feBlend1113" />
    </filter>
  </defs>
  <sodipodi:namedview
     id="base"
     pagecolor="#ffffff"
     bordercolor="#666666"
     borderopacity="1.0"
     inkscape:pageopacity="0.0"
     inkscape:pageshadow="2"
     inkscape:zoom="5.073294"
     inkscape:cx="31.266498"
     inkscape:cy="153.54912"
     inkscape:document-units="mm"
     inkscape:current-layer="layer1"
     showgrid="false"
     inkscape:window-width="2560"
     inkscape:window-height="1051"
     inkscape:window-x="0"
     inkscape:window-y="0"
     inkscape:window-maximized="1"
     fit-margin-top="0"
     fit-margin-left="0"
     fit-margin-right="0"
     fit-margin-bottom="0"
     scale-x="0.5" />
  <metadata
     id="metadata5">
    <rdf:RDF>
      <cc:Work
         rdf:about="">
        <dc:format>image/svg+xml</dc:format>
        <dc:type
           rdf:resource="http://purl.org/dc/dcmitype/StillImage" />
        <dc:title></dc:title>
      </cc:Work>
    </rdf:RDF>
  </metadata>
  <g
     inkscape:label="Layer 1"
     inkscape:groupmode="layer"
     id="layer1"
     transform="translate(-73.678291,-73.038823)">
    <path
       style="font-style:normal;font-weight:normal;font-size:76.81585693px;line-height:1.25;font-family:sans-serif;letter-spacing:0px;word-spacing:0px;fill:#531a89;fill-opacity:1;stroke:none;stroke-width:7.25819111;filter:url(#filter1115)"
       d="m 380.20898,317.64258 c -13.16958,0 -25.55857,2.80113 -36.59375,7.82812 h 73.45899 c -11.15069,-5.07861 -23.64782,-7.82812 -36.86524,-7.82812 z m -44.17187,11.75 c -6.6494,3.87932 -12.68536,8.61933 -17.95508,14.07031 h 34.4668 c 8.22816,-3.90209 17.49108,-6.07617 27.36914,-6.07617 10.05513,0 19.36535,2.07067 27.68359,6.07617 h 34.83203 c -5.24151,-5.5008 -11.22811,-10.22245 -17.79882,-14.07031 z m -21.50781,17.99023 c -3.61023,4.24943 -6.78778,8.86241 -9.46875,13.78321 h 25.3457 c 4.23115,-5.39967 9.33218,-10.05441 15.10547,-13.78321 z m 99.96484,0 c 5.52364,3.64573 10.50717,8.25289 14.85352,13.78321 h 25.89453 c -2.65771,-4.96131 -5.78216,-9.56576 -9.30664,-13.78321 z m -111.42187,17.70508 c -2.90574,6.09981 -5.08747,12.61071 -6.41211,19.44336 h 22.29687 c 1.79644,-7.06578 4.74093,-13.61102 8.61914,-19.44336 z m 129.14453,0 c 0.99284,1.45673 1.9524,2.96054 2.86523,4.52539 h 24.09766 c -0.61584,-1.53958 -1.28567,-3.04204 -1.98242,-4.52539 z m -110.26368,12.81055 v 26.63672 h 4.625 c 0.0653,-3.23847 0.57864,-5.26667 1.85547,-7.00782 1.8693,-2.67932 5.04777,-4.23828 8.53711,-4.23828 3.30242,0 6.41763,1.43478 8.22461,3.74024 1.46563,1.80383 2.15915,4.12865 2.2793,7.50586 h 4.60937 c -0.12877,-4.51252 -1.05422,-7.70477 -2.90039,-10.18555 -2.5547,-3.36473 -6.85487,-5.29688 -11.77734,-5.29688 -4.67323,0 -8.53634,1.86965 -10.8418,5.23438 v -16.38867 z m -25.95703,10.55468 c -0.56066,3.8928 -0.85546,7.87624 -0.85547,11.93555 0,1.39331 0.0442,2.77308 0.10938,4.14649 h 21.77539 c -0.0652,-1.18102 -0.10937,-2.36812 -0.10937,-3.56641 0,-4.29857 0.409,-8.47918 1.17382,-12.51563 z m 80.56446,0.59961 c -9.37724,0 -16.63625,6.51445 -17.77149,15.48243 h 4.6875 c 1.02675,-6.38517 6.52803,-11.2461 13.20899,-11.2461 6.73148,0 12.13469,4.75251 13.14843,11.2461 h 4.79688 v -14.67188 h -4.61133 v 6.04297 c -3.36473,-4.73554 -7.53956,-6.85352 -13.45898,-6.85352 z m 42.53125,0 c -9.3538,0 -16.71664,6.58432 -17.74805,15.48243 h 4.72461 c 0.99622,-6.55785 6.24679,-11.2461 13.02344,-11.2461 6.65496,0 11.76968,4.64615 12.8164,11.2461 h 4.71875 c -1.0855,-9.10705 -8.14468,-15.48243 -17.53515,-15.48243 z m 32.29492,0 c -5.54557,0 -9.65625,4.05014 -9.65625,9.59571 0,2.3211 0.80439,4.35133 2.3418,5.88672 h 9.67968 c -2.48184,-1.02603 -3.46534,-1.45142 -4.23437,-1.83594 -2.11853,-1.05927 -3.11524,-2.49242 -3.11524,-4.48633 0,-2.74163 2.1822,-4.92383 4.92383,-4.92383 2.99087,0 4.73514,1.74622 4.98438,4.98633 h 4.67187 c -0.18693,-5.48326 -4.11244,-9.22266 -9.5957,-9.22266 z m -155.86719,19.4043 c 0.44334,4.75708 1.26973,9.38156 2.45703,13.84375 h 22.59961 c -1.56534,-4.40516 -2.65025,-9.04128 -3.21289,-13.84375 z m 26.43359,0 v 15.48828 h 4.61133 v -15.48828 z m 25.54688,0 v 15.48828 h 4.61133 v -15.48828 z m 11.18555,0 c 0.70985,9.41397 8.22713,16.29883 18.18554,16.29883 5.79481,0 9.53448,-1.93085 13.14844,-6.79102 v 5.98047 h 4.61133 v -15.48828 h -4.7168 c -0.77603,6.88859 -6.18089,12.0625 -12.98047,12.0625 -7.12817,0 -12.70458,-5.14972 -13.52734,-12.0625 z m 42.60351,0 c 0.81517,9.54183 8.19345,16.29883 18.17774,16.29883 9.48672,0 16.58873,-6.83278 17.25586,-16.29883 h -4.66797 c -0.60051,7.06091 -5.74885,12.0625 -12.71289,12.0625 -7.29853,0 -12.65283,-4.95758 -13.3711,-12.0625 z m 50.25782,0 c 1.5505,0.6531 2.7299,1.25256 3.45507,1.71875 1.37082,0.93465 2.17969,2.55454 2.17969,4.42383 0,3.42704 -2.43,5.91992 -5.73242,5.91992 -3.8009,0 -6.16873,-2.43071 -6.41797,-6.60547 h -4.54687 c 0.0622,6.60484 4.42231,10.8418 10.96484,10.8418 6.10636,0 10.40625,-4.36082 10.40625,-10.5918 0,-2.28957 -0.58491,-4.1837 -1.76758,-5.70703 z M 299.12305,426.2207 c 1.27011,3.96795 2.84047,7.78742 4.66601,11.45313 h 24.80469 c -2.53715,-3.56048 -4.71565,-7.39226 -6.47461,-11.45313 z m 135.95898,7.26563 c -1.09205,1.45607 -2.17939,2.84641 -3.26367,4.1875 h 25.37891 c 0.74665,-1.35524 1.4893,-2.69765 2.27343,-4.1875 z m -129.21484,8.10937 c 2.63927,4.64297 5.72743,8.99047 9.20312,13.00586 h 31.5586 c -5.6798,-3.53512 -10.74538,-7.92443 -15.00782,-13.00586 z m 122.64453,0 c -4.72889,5.36571 -9.45601,9.6495 -14.36719,13.00586 h 32.02735 c 2.98019,-3.64763 5.80317,-7.81579 8.82617,-13.00586 z m -109.81641,16.92578 c 5.34768,5.41979 11.46796,10.11516 18.21289,13.94727 h 88.04883 c 3.31418,-1.93282 6.50664,-4.08188 9.54492,-6.46484 3.04607,-2.43686 5.72292,-4.85364 8.21875,-7.48243 h -35.24804 c -7.97923,3.95332 -16.6228,5.74024 -26.6836,5.74024 -9.62414,0 -18.68855,-2.06309 -26.81054,-5.74024 z m 26.01953,17.86914 c 11.12831,4.90203 23.62392,7.61329 36.94532,7.61329 12.68306,0 24.76067,-2.64925 35.70703,-7.61329 z"
       transform="scale(0.26458333)"
       id="text12"
       inkscape:export-xdpi="287.92001"
       inkscape:export-ydpi="287.92001"
       inkscape:connector-curvature="0" />
  </g>
</svg>
