<svg height="496pt" viewBox="0 0 496 496" width="496pt" xmlns="http://www.w3.org/2000/svg"><path d="m120 184v-32h48v32" fill="#bc8f6f"/><path d="m120 184v-32h32v32" fill="#cb9e78"/><path d="m376 120h112v32h-112zm0 0" fill="#bc8f6f"/><path d="m376 120h72v32h-72zm0 0" fill="#cb9e78"/><path d="m472 152h-80v296c0 22.089844 17.910156 40 40 40s40-17.910156 40-40zm0 0" fill="#bab8b9"/><path d="m420 485.96875c16.183594-5.121094 28-20.082031 28-37.96875v-296h-56v296c0 17.878906 11.816406 32.839844 28 37.96875zm0 0" fill="#d9d7d8"/><path d="m432 488c22.089844 0 40-17.910156 40-40v-184h-80v184c0 22.089844 17.910156 40 40 40zm0 0" fill="#d46b69"/><path d="m420 485.96875c16.183594-5.121094 28-20.082031 28-37.96875v-184h-56v184c0 17.878906 11.816406 32.839844 28 37.96875zm0 0" fill="#ed7775"/><path d="m248 488c17.671875 0 32-14.328125 32-32v-7.839844c0-5.351562-1.34375-10.625-3.902344-15.320312l-92.097656-168.839844v-80h-79.929688v80l-92.085937 168.839844c-2.558594 4.703125-3.90625 9.96875-3.90625 15.320312v7.839844c0 17.671875 14.328125 32 32 32zm0 0" fill="#bab8b9"/><path d="m256 456v-7.839844c0-5.351562-1.34375-10.625-3.902344-15.320312l-92.097656-168.839844v-80h-55.929688v80l-92.085937 168.839844c-2.558594 4.703125-3.90625 9.96875-3.90625 15.320312v7.839844c0 17.671875 14.328125 32 32 32h183.921875c17.671875 0 32-14.328125 32-32zm0 0" fill="#d9d7d8"/><path d="m280 456v-7.839844c0-5.351562-1.34375-10.625-3.902344-15.320312l-57.1875-104.839844h-12.285156c-4.242188 0-8.3125 1.6875-11.3125 4.6875l-6.625 6.625c-3 3-7.070312 4.6875-11.3125 4.6875h-2.742188c-4.242187 0-8.3125-1.6875-11.3125-4.6875l-6.625-6.625c-3.007812-3-7.078124-4.6875-11.320312-4.6875h-2.742188c-4.242187 0-8.3125 1.6875-11.3125 4.6875l-6.625 6.625c-3.007812 3-7.078124 4.6875-11.320312 4.6875h-2.742188c-4.242187 0-8.3125-1.6875-11.3125-4.6875l-6.625-6.625c-3.007812-3-7.078124-4.6875-11.320312-4.6875h-12.207031l-57.183594 104.839844c-2.558594 4.703125-3.90625 9.96875-3.90625 15.320312v7.839844c0 17.671875 14.328125 32 32 32h207.921875c17.671875 0 32-14.328125 32-32zm0 0" fill="#599072"/><path d="m264 280v68.183594c-27.945312 9.894531-48 36.480468-48 67.816406 0 39.769531 32.230469 72 72 72s72-32.230469 72-72c0-31.335938-20.054688-57.921875-48-67.816406v-68.183594" fill="#bab8b9"/><path d="m216 416c0 37.054688 28.007812 67.542969 64 71.527344 35.992188-3.984375 64-34.472656 64-71.527344 0-31.335938-20.054688-57.921875-48-67.816406v-68.183594h-32v68.183594c-27.945312 9.894531-48 36.480468-48 67.816406zm0 0" fill="#d9d7d8"/><path d="m360 416c0-2.710938-.199219-5.367188-.496094-8h-8.878906c-4.242188 0-8.3125 1.6875-11.3125 4.6875l-6.625 6.625c-3 3-7.070312 4.6875-11.3125 4.6875h-2.742188c-4.242187 0-8.3125-1.6875-11.3125-4.6875l-6.625-6.625c-3.007812-3-7.078124-4.6875-11.320312-4.6875h-2.742188c-4.242187 0-8.3125 1.6875-11.3125 4.6875l-6.625 6.625c-3.007812 3-7.078124 4.6875-11.320312 4.6875h-2.742188c-4.242187 0-8.3125-1.6875-11.3125-4.6875l-6.625-6.625c-3.007812-3-7.078124-4.6875-11.320312-4.6875h-8.878906c-.296875 2.632812-.496094 5.289062-.496094 8 0 39.769531 32.230469 72 72 72s72-32.230469 72-72zm0 0" fill="#85b6cf"/><path d="m280 487.527344c35.992188-3.984375 64-34.472656 64-71.527344 0-2.136719-.191406-4.222656-.390625-6.304688-1.570313.769532-3.042969 1.738282-4.296875 2.992188l-6.625 6.625c-3 3-7.070312 4.6875-11.3125 4.6875h-2.742188c-2.3125 0-4.5625-.542969-6.625-1.488281-2.070312.945312-4.320312 1.488281-6.632812 1.488281h-2.742188c-4.242187 0-8.3125-1.6875-11.3125-4.6875l-6.625-6.625c-1.359374-1.359375-2.96875-2.414062-4.6875-3.199219-1.71875.785157-3.320312 1.839844-4.6875 3.199219l-6.625 6.625c-3.007812 3-7.078124 4.6875-11.320312 4.6875h-2.742188c-2.3125 0-4.5625-.542969-6.625-1.488281-2.070312.945312-4.320312 1.488281-6.632812 1.488281h-2.742188c-4.242187 0-8.3125-1.6875-11.3125-4.6875l-6.625-6.625c-1.253906-1.253906-2.726562-2.222656-4.296874-2.992188-.207032 2.082032-.398438 4.167969-.398438 6.304688 0 37.054688 28.007812 67.542969 64 71.527344zm0 0" fill="#94cce7"/><g fill="#70b48f"><path d="m136 424c0 8.835938-7.164062 16-16 16s-16-7.164062-16-16 7.164062-16 16-16 16 7.164062 16 16zm0 0"/><path d="m192 392c0 8.835938-7.164062 16-16 16s-16-7.164062-16-16 7.164062-16 16-16 16 7.164062 16 16zm0 0"/><path d="m72 440c0 8.835938-7.164062 16-16 16s-16-7.164062-16-16 7.164062-16 16-16 16 7.164062 16 16zm0 0"/></g><path d="m72 40c0 17.671875-14.328125 32-32 32s-32-14.328125-32-32 14.328125-32 32-32 32 14.328125 32 32zm0 0" fill="#599072"/><path d="m88 120c0 8.835938-7.164062 16-16 16s-16-7.164062-16-16 7.164062-16 16-16 16 7.164062 16 16zm0 0" fill="#85b6cf"/><path d="m56 192c0 13.253906-10.746094 24-24 24s-24-10.746094-24-24 10.746094-24 24-24 24 10.746094 24 24zm0 0" fill="#cb9e78"/><path d="m248 496h-208c-22.054688 0-40-17.945312-40-40v-7.839844c0-6.671875 1.6875-13.296875 4.878906-19.152344l91.121094-167.046874v-77.960938c0-4.414062 3.574219-8 8-8h80c4.425781 0 8 3.585938 8 8v77.960938l53.488281 98.046874-14.046875 7.664063-54.464844-99.839844c-.640624-1.175781-.976562-2.496093-.976562-3.832031v-72h-64v72c0 1.335938-.335938 2.65625-.976562 3.832031l-92.09375 168.832031c-1.914063 3.511719-2.929688 7.496094-2.929688 11.496094v7.839844c0 13.230469 10.769531 24 24 24h208c4.191406 0 8.320312-1.097656 11.9375-3.167969l7.964844 13.863281c-6.03125 3.472657-12.910156 5.304688-19.902344 5.304688zm0 0"/><path d="m321.375 432h-2.75c-6.410156 0-12.441406-2.496094-16.96875-7.03125l-6.625-6.625c-1.496094-1.488281-3.550781-2.34375-5.65625-2.34375h-2.75c-2.105469 0-4.167969.855469-5.65625 2.34375l-6.625 6.625c-4.527344 4.535156-10.558594 7.03125-16.96875 7.03125h-2.75c-6.410156 0-12.441406-2.496094-16.96875-7.03125l-6.625-6.625c-1.496094-1.488281-3.550781-2.34375-5.65625-2.34375h-9.375v-16h9.375c6.410156 0 12.441406 2.496094 16.96875 7.03125l6.625 6.625c1.496094 1.488281 3.550781 2.34375 5.65625 2.34375h2.75c2.105469 0 4.167969-.855469 5.65625-2.34375l6.625-6.625c4.527344-4.535156 10.558594-7.03125 16.96875-7.03125h2.75c6.410156 0 12.441406 2.496094 16.96875 7.03125l6.625 6.625c1.496094 1.488281 3.550781 2.34375 5.65625 2.34375h2.75c2.105469 0 4.167969-.855469 5.65625-2.34375l6.625-6.625c4.527344-4.535156 10.558594-7.03125 16.96875-7.03125h9.375v16h-9.375c-2.105469 0-4.167969.855469-5.65625 2.34375l-6.625 6.625c-4.527344 4.535156-10.558594 7.03125-16.96875 7.03125zm0 0"/><path d="m288 496c-44.113281 0-80-35.886719-80-80 0-31.863281 19.070312-60.617188 48-73.257812v-62.742188h16v68.183594c0 3.390625-2.136719 6.410156-5.328125 7.542968-25.519531 9.035157-42.671875 33.257813-42.671875 60.273438 0 35.289062 28.710938 64 64 64s64-28.710938 64-64c0-27.015625-17.152344-51.238281-42.671875-60.273438-3.191406-1.132812-5.328125-4.152343-5.328125-7.542968v-68.183594h16v62.742188c28.929688 12.640624 48 41.394531 48 73.257812 0 44.113281-35.886719 80-80 80zm0 0"/><path d="m240 272h96v16h-96zm0 0"/><path d="m264 304h48v16h-48zm0 0"/><path d="m176 184h-16v-24h-32v24h-16v-32c0-4.414062 3.574219-8 8-8h48c4.425781 0 8 3.585938 8 8zm0 0"/><path d="m80 208h128v16h-128zm0 0"/><path d="m56 464c-13.230469 0-24-10.769531-24-24s10.769531-24 24-24 24 10.769531 24 24-10.769531 24-24 24zm0-32c-4.414062 0-8 3.59375-8 8s3.585938 8 8 8 8-3.59375 8-8-3.585938-8-8-8zm0 0"/><path d="m120 448c-13.230469 0-24-10.769531-24-24s10.769531-24 24-24 24 10.769531 24 24-10.769531 24-24 24zm0-32c-4.414062 0-8 3.59375-8 8s3.585938 8 8 8 8-3.59375 8-8-3.585938-8-8-8zm0 0"/><path d="m176 416c-13.230469 0-24-10.769531-24-24s10.769531-24 24-24 24 10.769531 24 24-10.769531 24-24 24zm0-32c-4.414062 0-8 3.59375-8 8s3.585938 8 8 8 8-3.59375 8-8-3.585938-8-8-8zm0 0"/><path d="m184 448h16v16h-16zm0 0"/><path d="m168 432h16v16h-16zm0 0"/><path d="m152 448h16v16h-16zm0 0"/><path d="m88 376h16v16h-16zm0 0"/><path d="m432 496c-26.472656 0-48-21.527344-48-48v-296c0-4.414062 3.574219-8 8-8h80c4.425781 0 8 3.585938 8 8v296c0 26.472656-21.527344 48-48 48zm-32-336v288c0 17.648438 14.351562 32 32 32s32-14.351562 32-32v-288zm0 0"/><path d="m488 160h-112c-4.425781 0-8-3.585938-8-8v-32c0-4.414062 3.574219-8 8-8h112c4.425781 0 8 3.585938 8 8v32c0 4.414062-3.574219 8-8 8zm-104-16h96v-16h-96zm0 0"/><path d="m392 256h80v16h-80zm0 0"/><path d="m416 440h16v16h-16zm0 0"/><path d="m432 408h16v16h-16zm0 0"/><path d="m416 376h16v16h-16zm0 0"/><path d="m432 344h16v16h-16zm0 0"/><path d="m416 312h16v16h-16zm0 0"/><path d="m272 256h-16v-200c0-13.230469 10.769531-24 24-24h96c13.230469 0 24 10.769531 24 24v40h-16v-40c0-4.40625-3.585938-8-8-8h-96c-4.414062 0-8 3.59375-8 8zm0 0"/><path d="m176 128h-16v-104c0-13.230469 10.769531-24 24-24h272c13.230469 0 24 10.769531 24 24v72h-16v-72c0-4.40625-3.585938-8-8-8h-272c-4.414062 0-8 3.59375-8 8zm0 0"/><path d="m320 256h-16v-168c0-4.40625-3.585938-8-8-8h-160c-4.414062 0-8 3.59375-8 8v40h-16v-40c0-13.230469 10.769531-24 24-24h160c13.230469 0 24 10.769531 24 24zm0 0"/><path d="m72 144c-13.230469 0-24-10.769531-24-24s10.769531-24 24-24 24 10.769531 24 24-10.769531 24-24 24zm0-32c-4.414062 0-8 3.59375-8 8s3.585938 8 8 8 8-3.59375 8-8-3.585938-8-8-8zm0 0"/><path d="m40 80c-22.054688 0-40-17.945312-40-40s17.945312-40 40-40 40 17.945312 40 40-17.945312 40-40 40zm0-64c-13.230469 0-24 10.769531-24 24s10.769531 24 24 24 24-10.769531 24-24-10.769531-24-24-24zm0 0"/><path d="m32 224c-17.648438 0-32-14.351562-32-32s14.351562-32 32-32 32 14.351562 32 32-14.351562 32-32 32zm0-48c-8.824219 0-16 7.175781-16 16s7.175781 16 16 16 16-7.175781 16-16-7.175781-16-16-16zm0 0"/><path d="m176 352c-7.289062 0-14.152344-2.839844-19.3125-8l-4.6875-4.6875c-4.28125-4.273438-11.71875-4.28125-16 0l-4.6875 4.6875c-10.328125 10.320312-28.296875 10.320312-38.625 0l-4.6875-4.6875c-2.144531-2.136719-4.976562-3.3125-8-3.3125h-8v-16h8c7.289062 0 14.152344 2.839844 19.3125 8l4.6875 4.6875c4.28125 4.273438 11.71875 4.28125 16 0l4.6875-4.6875c10.328125-10.320312 28.296875-10.320312 38.625 0l4.6875 4.6875c4.28125 4.273438 11.71875 4.28125 16 0l4.6875-4.6875c5.167969-5.160156 12.023438-8 19.3125-8h8v16h-8c-3.023438 0-5.855469 1.175781-8 3.320312l-4.6875 4.679688c-5.160156 5.160156-12.023438 8-19.3125 8zm0 0"/></svg>