<?xml version="1.0" encoding="iso-8859-1"?>
<!-- Generator: Adobe Illustrator 19.0.0, SVG Export Plug-In . SVG Version: 6.00 Build 0)  -->
<svg version="1.1" id="Capa_1" xmlns="http://www.w3.org/2000/svg" xmlns:xlink="http://www.w3.org/1999/xlink" x="0px" y="0px"
	 viewBox="0 0 512.001 512.001" style="enable-background:new 0 0 512.001 512.001;" xml:space="preserve">
<path style="fill:#D3DAE0;" d="M399.36,231.111v-80.142c0-79.179-64.187-143.366-143.356-143.366
	c-79.179,0-143.366,64.187-143.366,143.366v80.142 M164.336,231.111v-80.142c0-50.553,41.125-91.668,91.668-91.668
	s91.658,41.115,91.658,91.668v80.142"/>
<g>
	<path style="fill:#899EA8;" d="M264.366,7.852c-2.767-0.159-5.554-0.249-8.362-0.249c-79.179,0-143.366,64.187-143.366,143.366
		v80.142h16.725v-80.142C129.363,74.598,189.08,12.183,264.366,7.852z"/>
	<path style="fill:#899EA8;" d="M272.729,59.3c-2.819,0-5.608,0.135-8.363,0.385c46.637,4.238,83.295,43.549,83.295,91.283v80.142
		h16.725v-80.142C364.386,100.416,323.271,59.3,272.729,59.3z"/>
</g>
<rect x="65.181" y="231.111" style="fill:#F79F00;" width="381.634" height="273.291"/>
<rect x="65.181" y="231.111" style="fill:#E48900;" width="33.45" height="273.291"/>
<path style="fill:#3E3D4C;" d="M297.053,342.103c0-22.673-18.38-41.052-41.052-41.052s-41.052,18.379-41.052,41.052
	c0,15.616,8.721,29.194,21.556,36.134l-6.606,50.531h52.205l-6.606-50.531C288.332,371.298,297.053,357.719,297.053,342.103z"/>
<path d="M446.818,223.507h-39.855v-28.888c0-4.199-3.404-7.603-7.603-7.603l0,0c-4.199,0-7.603,3.404-7.603,7.603v28.888h-36.493
	v-71.283c0-54.65-43.64-99.994-98.287-100.521c-55.182-0.531-100.244,44.203-100.244,99.265v72.539h-36.493v-71.043
	c0-74.914,60.052-136.822,134.965-137.255c75.22-0.435,136.552,60.635,136.552,135.76v8.17c0,4.199,3.404,7.603,7.603,7.603l0,0
	c4.199,0,7.603-3.404,7.603-7.603v-6.719c0-83.446-67.09-152.189-150.536-152.419c-83.438-0.229-151.391,67.583-151.391,150.968
	v72.539H65.183c-4.199,0-7.603,3.404-7.603,7.603v198.684c0,4.199,3.404,7.603,7.603,7.603l0,0c4.199,0,7.603-3.404,7.603-7.603
	V238.712h366.429v258.083H72.786v-31.522c0-4.199-3.404-7.603-7.603-7.603l0,0c-4.199,0-7.603,3.404-7.603,7.603v39.124
	c0,4.199,3.404,7.603,7.603,7.603h381.635c4.199,0,7.603-3.404,7.603-7.603V231.109C454.42,226.911,451.017,223.507,446.818,223.507
	z M171.939,150.969c0-46.354,37.711-84.065,84.065-84.065c46.348,0,84.055,37.711,84.055,84.065v72.539h-168.12V150.969z"/>
<path d="M304.656,342.102c0-26.828-21.827-48.655-48.655-48.655s-48.655,21.827-48.655,48.655c0,16.099,7.92,30.995,20.983,40.024
	l-5.969,45.656c-0.284,2.17,0.381,4.357,1.825,6.001c1.443,1.645,3.526,2.588,5.714,2.588h52.205c2.189,0,4.27-0.943,5.714-2.588
	c1.443-1.644,2.108-3.831,1.825-6.001l-5.969-45.656C296.735,373.098,304.656,358.202,304.656,342.102z M271.88,371.549
	c-2.77,1.499-4.33,4.549-3.922,7.674l5.483,41.943h-34.882l5.483-41.943c0.409-3.124-1.152-6.175-3.922-7.674
	c-10.837-5.859-17.57-17.143-17.57-29.447c0-18.444,15.006-33.45,33.45-33.45c18.444,0,33.45,15.006,33.45,33.45
	C289.451,354.406,282.718,365.69,271.88,371.549z"/>
<g>
</g>
<g>
</g>
<g>
</g>
<g>
</g>
<g>
</g>
<g>
</g>
<g>
</g>
<g>
</g>
<g>
</g>
<g>
</g>
<g>
</g>
<g>
</g>
<g>
</g>
<g>
</g>
<g>
</g>
</svg>
