<svg id="Layer_5" enable-background="new 0 0 64 64" height="512" viewBox="0 0 64 64" width="512" xmlns="http://www.w3.org/2000/svg"><g><g><g><path d="m45 56v4c0 1.1-.9 2-2 2h-14c-1.1 0-2-.9-2-2v-4c0-1.1.9-2 2-2h7 7c1.1 0 2 .9 2 2z" fill="#5cd6b3"/></g><g><path d="m42 23v6h-6-6v-3-3h6z" fill="#e6e9ed"/></g><g><path d="m16 26-7 5-7-5 7-5z" fill="#fcd770"/></g><g><path d="m44 42-8 5-8-5 8-5z" fill="#fcd770"/></g><g><path d="m44 2v12h-8-8v-12z" fill="#f0d0b4"/></g><g><circle cx="9" cy="58" fill="#ff826e" r="2"/></g><g><circle cx="60" cy="8" fill="#ff826e" r="2"/></g><g><circle cx="60" cy="42" fill="#ff826e" r="2"/></g></g><g><path d="m43 53h-6v-5.446l8.887-5.554-8.887-5.554v-6.446h6v-8h-6v-7h8v-14h-18v14h8v7h-6v3h-9v2h9v3h6v6.446l-8.887 5.554 8.887 5.554v5.446h-6c-1.654 0-3 1.346-3 3v4c0 1.654 1.346 3 3 3h14c1.654 0 3-1.346 3-3v-4c0-1.654-1.346-3-3-3zm-14-40v-10h14v10zm2 15v-4h10v4zm-1.113 14 6.113-3.821 6.113 3.821-6.113 3.821zm14.113 18c0 .551-.449 1-1 1h-14c-.551 0-1-.449-1-1v-4c0-.551.449-1 1-1h14c.551 0 1 .449 1 1z"/><path d="m18.293 54.707 2.293 2.293h-8.77c-.302-.847-.969-1.514-1.816-1.816v-21.184h-2v21.184c-1.161.414-2 1.514-2 2.816 0 1.654 1.346 3 3 3 1.302 0 2.402-.839 2.816-2h8.77l-2.293 2.293 1.414 1.414 4.707-4.707-4.707-4.707zm-9.293 4.293c-.551 0-1-.449-1-1s.449-1 1-1 1 .449 1 1-.449 1-1 1z"/><path d="m61 39.184v-28.368c1.161-.414 2-1.514 2-2.816 0-1.654-1.346-3-3-3-1.302 0-2.402.839-2.816 2h-10.184v2h10.184c.302.847.969 1.514 1.816 1.816v28.369c-.847.302-1.514.969-1.816 1.816h-6.77l2.293-2.293-1.414-1.414-4.707 4.706 4.707 4.707 1.414-1.414-2.293-2.293h6.77c.414 1.161 1.514 2 2.816 2 1.654 0 3-1.346 3-3 0-1.302-.839-2.402-2-2.816zm-1-32.184c.551 0 1 .449 1 1s-.449 1-1 1-1-.449-1-1 .449-1 1-1zm0 36c-.551 0-1-.449-1-1s.449-1 1-1 1 .449 1 1-.449 1-1 1z"/><path d="m17.721 26-8.721-6.229-8.721 6.229 8.721 6.229zm-8.721-3.771 5.279 3.771-5.279 3.771-5.279-3.771z"/><path d="m31 5h10v2h-10z"/><path d="m31 9h6v2h-6z"/><path d="m39 9h2v2h-2z"/><path d="m48 57h2v2h-2z"/><path d="m52 57h2v2h-2z"/><path d="m56 57h2v2h-2z"/><path d="m23 9h2v2h-2z"/><path d="m15 9h2v2h-2z"/><path d="m19 9h2v2h-2z"/></g></g></svg>