<?xml version="1.0" encoding="iso-8859-1"?>
<!-- Generator: Adobe Illustrator 19.0.0, SVG Export Plug-In . SVG Version: 6.00 Build 0)  -->
<svg version="1.1" id="Layer_1" xmlns="http://www.w3.org/2000/svg" xmlns:xlink="http://www.w3.org/1999/xlink" x="0px" y="0px"
	 viewBox="0 0 512 512" style="enable-background:new 0 0 512 512;" xml:space="preserve">
<g transform="translate(1 1)">
	<g>
		<path style="fill:#FFE100;" d="M152.6,378.733V319h-34.133v68.267c0,28.16,23.04,51.2,51.2,51.2h332.8v-34.133H178.2
			C163.693,404.333,152.6,393.24,152.6,378.733"/>
		<path style="fill:#FFE100;" d="M468.333,71.533H41.667c-18.773,0-34.133,15.36-34.133,34.133v204.8
			c0,18.773,15.36,34.133,34.133,34.133h76.8V319H152.6v25.6h315.733c18.773,0,34.133-15.36,34.133-34.133v-204.8
			C502.467,86.893,487.107,71.533,468.333,71.533"/>
	</g>
	<path style="fill:#FFA800;" d="M468.333,71.533h-17.067c18.773,0,34.133,15.36,34.133,34.133v204.8
		c0,18.773-15.36,34.133-34.133,34.133h17.067c18.773,0,34.133-15.36,34.133-34.133v-204.8
		C502.467,86.893,487.107,71.533,468.333,71.533"/>
	<path style="fill:#FFFFFF;" d="M41.667,71.533h17.067c-18.773,0-34.133,15.36-34.133,34.133v204.8
		c0,18.773,15.36,34.133,34.133,34.133H41.667c-18.773,0-34.133-15.36-34.133-34.133v-204.8
		C7.533,86.893,22.893,71.533,41.667,71.533"/>
	<path style="fill:#63D3FD;" d="M429.933,267.8h-128c-17.067-38.4-17.067-81.067,0-119.467h128C447,186.733,447,229.4,429.933,267.8
		"/>
	<path style="fill:#3DB9F9;" d="M429.933,148.333h-25.6c17.067,38.4,17.067,81.067,0,119.467h25.6
		C447,229.4,447,186.733,429.933,148.333"/>
	<path style="fill:#FDCC00;" d="M199.533,148.333h-128c-17.067,38.4-17.067,81.067,0,119.467H101.4v-23.893
		c0-10.24,8.533-18.773,18.773-18.773h15.36h15.36c10.24,0,18.773,8.533,18.773,18.773V267.8h29.867
		C216.6,229.4,216.6,186.733,199.533,148.333"/>
	<g>
		<path style="fill:#63D3FD;" d="M152.6,319h-34.133c-9.387,0-17.067-7.68-17.067-17.067v-58.027
			c0-10.24,8.533-18.773,18.773-18.773h15.36h15.36c10.24,0,18.773,8.533,18.773,18.773v58.027
			C169.667,311.32,161.987,319,152.6,319"/>
		<path style="fill:#63D3FD;" d="M101.4,148.333V165.4c0,9.387,7.68,17.067,17.067,17.067H152.6c9.387,0,17.067-7.68,17.067-17.067
			v-17.067H101.4z"/>
	</g>
	<path d="M468.333,114.2c5.12,0,8.533-3.413,8.533-8.533s-3.413-8.533-8.533-8.533c-5.12,0-8.533,3.413-8.533,8.533
		S463.213,114.2,468.333,114.2"/>
	<path d="M468.333,319c5.12,0,8.533-3.413,8.533-8.533c0-5.12-3.413-8.533-8.533-8.533c-5.12,0-8.533,3.413-8.533,8.533
		C459.8,315.587,463.213,319,468.333,319"/>
	<path d="M41.667,114.2c5.12,0,8.533-3.413,8.533-8.533s-3.413-8.533-8.533-8.533s-8.533,4.267-8.533,8.533
		C33.133,109.933,36.547,114.2,41.667,114.2"/>
	<path d="M41.667,319c5.12,0,8.533-3.413,8.533-8.533c0-5.12-3.413-8.533-8.533-8.533s-8.533,3.413-8.533,8.533
		C33.133,315.587,36.547,319,41.667,319"/>
	<path d="M152.6,327.533h-34.133c-14.507,0-25.6-11.093-25.6-25.6v-58.027c0-15.36,11.947-27.307,27.307-27.307h30.72
		c15.36,0,27.307,11.947,27.307,27.307v58.027C178.2,316.44,167.107,327.533,152.6,327.533z M120.173,233.667
		c-5.973,0-10.24,4.267-10.24,10.24v58.027c0,5.12,3.413,8.533,8.533,8.533H152.6c5.12,0,8.533-3.413,8.533-8.533v-58.027
		c0-5.973-4.267-10.24-10.24-10.24H120.173z"/>
	<path d="M169.667,267.8H101.4c-5.12,0-8.533-3.413-8.533-8.533c0-5.12,3.413-8.533,8.533-8.533h68.267
		c5.12,0,8.533,3.413,8.533,8.533C178.2,264.387,174.787,267.8,169.667,267.8z"/>
	<path d="M169.667,301.933H101.4c-5.12,0-8.533-3.413-8.533-8.533c0-5.12,3.413-8.533,8.533-8.533h68.267
		c5.12,0,8.533,3.413,8.533,8.533C178.2,298.52,174.787,301.933,169.667,301.933z"/>
	<path d="M502.467,447h-332.8c-33.28,0-59.733-26.453-59.733-59.733V319c0-5.12,3.413-8.533,8.533-8.533H152.6
		c5.12,0,8.533,3.413,8.533,8.533v59.733c0,9.387,7.68,17.067,17.067,17.067h324.267c5.12,0,8.533,3.413,8.533,8.533v34.133
		C511,443.587,507.587,447,502.467,447z M127,327.533v59.733c0,23.893,18.773,42.667,42.667,42.667h324.267v-17.067H178.2
		c-18.773,0-34.133-15.36-34.133-34.133v-51.2H127z"/>
	<path d="M468.333,353.133H152.6c-5.12,0-8.533-3.413-8.533-8.533v-17.067H127V344.6c0,5.12-3.413,8.533-8.533,8.533h-76.8
		C17.773,353.133-1,334.36-1,310.467v-204.8C-1,81.773,17.773,63,41.667,63h426.667C492.227,63,511,81.773,511,105.667v204.8
		C511,334.36,492.227,353.133,468.333,353.133z M161.133,336.067h307.2c14.507,0,25.6-11.093,25.6-25.6v-204.8
		c0-14.507-11.093-25.6-25.6-25.6H41.667c-14.507,0-25.6,11.093-25.6,25.6v204.8c0,14.507,11.093,25.6,25.6,25.6h68.267V319
		c0-5.12,3.413-8.533,8.533-8.533H152.6c5.12,0,8.533,3.413,8.533,8.533V336.067z"/>
	<path d="M152.6,191h-34.133c-14.507,0-25.6-11.093-25.6-25.6v-17.067c0-5.12,3.413-8.533,8.533-8.533h68.267
		c5.12,0,8.533,3.413,8.533,8.533V165.4C178.2,179.907,167.107,191,152.6,191z M109.933,156.867v8.533
		c0,5.12,3.413,8.533,8.533,8.533H152.6c5.12,0,8.533-3.413,8.533-8.533v-8.533H109.933z"/>
	<path d="M331.8,208.067c-5.12,0-8.533-3.413-8.533-8.533v-17.067c0-5.12,3.413-8.533,8.533-8.533s8.533,3.413,8.533,8.533v17.067
		C340.333,204.653,336.92,208.067,331.8,208.067z"/>
	<path d="M400.067,208.067c-5.12,0-8.533-3.413-8.533-8.533v-17.067c0-5.12,3.413-8.533,8.533-8.533s8.533,3.413,8.533,8.533v17.067
		C408.6,204.653,405.187,208.067,400.067,208.067z"/>
	<path d="M378.733,242.2h-25.6c-2.56,0-4.267-1.707-4.267-4.267v-4.267c0-9.387,7.68-17.067,17.067-17.067S383,224.28,383,233.667
		v4.267C383,240.493,381.293,242.2,378.733,242.2"/>
	<path d="M429.933,276.333h-128c-3.413,0-6.827-1.707-7.68-5.12c-17.92-40.107-17.92-86.187,0-126.293
		c0.853-3.413,4.267-5.12,7.68-5.12h128c3.413,0,6.827,1.707,7.68,5.12c17.92,40.107,17.92,86.187,0,126.293
		C436.76,274.627,433.347,276.333,429.933,276.333z M307.053,259.267H423.96c12.8-32.427,12.8-69.973,0-102.4H307.053
		C294.253,190.147,294.253,226.84,307.053,259.267z"/>
	<path d="M199.533,276.333h-29.867c-5.12,0-8.533-3.413-8.533-8.533v-23.893c0-5.973-4.267-10.24-10.24-10.24h-30.72
		c-5.973,0-10.24,4.267-10.24,10.24V267.8c0,5.12-3.413,8.533-8.533,8.533H71.533c-3.413,0-6.827-1.707-7.68-5.12
		c-17.92-40.107-17.92-86.187,0-126.293c0.853-3.413,4.267-5.12,7.68-5.12h128c3.413,0,6.827,1.707,7.68,5.12
		c17.92,40.107,17.92,86.187,0,126.293C206.36,274.627,202.947,276.333,199.533,276.333z M178.2,259.267h16.213
		c12.8-32.427,12.8-69.973,0-102.4H76.653c-12.8,32.427-12.8,69.973,0,102.4h16.213v-15.36c0-15.36,11.947-27.307,27.307-27.307
		h30.72c15.36,0,27.307,11.947,27.307,27.307V259.267z"/>
</g>
<g>
</g>
<g>
</g>
<g>
</g>
<g>
</g>
<g>
</g>
<g>
</g>
<g>
</g>
<g>
</g>
<g>
</g>
<g>
</g>
<g>
</g>
<g>
</g>
<g>
</g>
<g>
</g>
<g>
</g>
</svg>
