<svg id="_x33_0" enable-background="new 0 0 64 64" height="512" viewBox="0 0 64 64" width="512" xmlns="http://www.w3.org/2000/svg"><g><g><g><path d="m48 53.68v8.32h-12v-1.94c0-1.74.75-3.35 2-4.47.38-.35.82-.65 1.29-.88l.02-.02c.15-.07.3-.14.46-.2l5.93-2.37c.1-.04.2-.07.3-.09s.21-.03.32-.03c.93 0 1.68.75 1.68 1.68z" fill="#656d78"/></g><g><path d="m39.31 54.69 6.69-6.69v4.03c-.1.02-.2.05-.3.09l-5.93 2.37c-.16.06-.31.13-.46.2z" fill="#ccd1d9"/></g><g><path d="m46 43v5l-6.69 6.69c-.01.01-.01.01-.02.02-.47.23-.91.53-1.29.88v-4.58z" fill="#ccd1d9"/></g><g><path d="m28 49 3 3 3 3 2 2-3 3-1-1-5-5-4-4 3-3z" fill="#ef7385"/></g><g><path d="m27 54 5 5c0 1.66-1.34 3-3 3h-3.76c-1.37 0-2.63-.77-3.24-2l1-6z" fill="#ccd1d9"/></g><g><path d="m12.11 48c.58 0 1.15.16 1.66.46l9.23 5.54-1 6-18.74-2.81c-.72-.11-1.26-.73-1.26-1.47 0-.45.21-.88.57-1.16l1.43-1.12 4.19-3.25 1.94-1.51c.53-.42 1.19-.66 1.87-.68z" fill="#656d78"/></g><g><path d="m12 42v6l-6-6z" fill="#ccd1d9"/></g><g><path d="m6 42 6 6c-.68.02-1.34.26-1.87.68l-1.94 1.51-4.19-4.19v-4z" fill="#ccd1d9"/></g><g><path d="m8.19 50.19-4.19 3.25v-7.44z" fill="#ccd1d9"/></g><g><path d="m44.29 32.71-6.31 6.31c-.07-2.17-.35-4.32-.84-6.43l1.86-1.59c1.97 0 3.8.64 5.29 1.71z" fill="#ccd1d9"/></g><g><path d="m11 31 1.86 1.59c-.57 2.47-.86 5-.86 7.53v1.88h-6-2-2v-2c0-4.97 4.03-9 9-9z" fill="#ccd1d9"/></g><g><path d="m37.98 39.02-9.98 9.98-2-2-3 3 4 4h-4l-9.23-5.54c-.51-.3-1.08-.46-1.66-.46-.04 0-.07 0-.11 0v-6-1.88c0-2.53.29-5.06.86-7.53l12.14 10.41 12.14-10.41c.49 2.11.77 4.26.84 6.43z" fill="#ccd1d9"/></g><g><path d="m39 31-1.86 1.59-12.14 10.41-12.14-10.41-1.86-1.59 5.14-3.43 6.86 5.61.23.19c.5.41 1.12.63 1.77.63s1.27-.22 1.77-.63l.23-.19 6.86-5.61z" fill="#656d78"/></g><g><path d="m36.17 5.83.83 19.17-3.14 2.57-6.86 5.61v-13.18l.1-.02c2.85-.57 4.9-3.07 4.9-5.98h-14c0 2.91 2.05 5.41 4.9 5.98l.1.02v13.18l-6.86-5.61-3.14-2.57.83-19.17c.1-2.14 1.86-3.83 4-3.83h14.34c2.14 0 3.9 1.69 4 3.83z" fill="#ccd1d9"/></g><g><path d="m62 21v6l-5-1-1-5z" fill="#fcd770"/></g><g><path d="m62 27-16 16-8 8.01-4 3.99-3-3 26-26z" fill="#fcd770"/></g><g><path d="m56 21 1 5-26 26-3-3 9.98-9.98 6.31-6.31z" fill="#fcd770"/></g><g><path d="m18 14h14c0 2.91-2.05 5.41-4.9 5.98l-.1.02v13.18l-.23.19c-.5.41-1.12.63-1.77.63s-1.27-.22-1.77-.63l-.23-.19v-13.18l-.1-.02c-2.85-.57-4.9-3.07-4.9-5.98z" fill="#fcd770"/></g><g><circle cx="25" cy="8" fill="#fcd770" r="2"/></g></g><g><path d="m25 11c1.654 0 3-1.346 3-3s-1.346-3-3-3-3 1.346-3 3 1.346 3 3 3zm0-4c.552 0 1 .449 1 1s-.448 1-1 1-1-.449-1-1 .448-1 1-1z"/><path d="m63 27.414v-7.414h-7.414l-11.432 11.432c-1.461-.883-3.112-1.365-4.833-1.419l-3.785-2.523 2.484-2.032-.855-19.675c-.116-2.682-2.311-4.783-4.995-4.783h-14.34c-2.685 0-4.879 2.101-4.995 4.783l-.855 19.674 2.484 2.032-3.791 2.527c-5.362.176-9.673 4.58-9.673 9.984v3h2v9.956l-1.041.81c-.609.473-.959 1.187-.959 1.959 0 1.238.889 2.27 2.113 2.454l18.263 2.739c.848 1.296 2.283 2.082 3.86 2.082h3.764c1.512 0 2.814-.852 3.494-2.092l.506.506 2.052-2.052c-.023.232-.052.463-.052.7v2.938h14v-9.323c0-1.241-.853-2.278-2-2.58v-7.683zm-29 26.172-1.586-1.586 24.915-24.915 2.643.529zm-10.723-.586-8.997-5.398c-.396-.238-.831-.396-1.28-.488v-6.991c0-1.896.171-3.792.502-5.661l11.498 9.855 11.5-9.857c.244 1.378.393 2.773.458 4.168l-8.958 8.958-2-2-4.414 4.414 3 3zm-12.277-7.414-2.586-2.586h2.586zm44.386-22.558.529 2.643-24.915 24.915-1.586-1.586zm5.614 2.752-3.15-.63-.63-3.15h3.78zm-22.174 10.98c-.125-1.273-.321-2.54-.586-3.791l1.099-.942c1.178.049 2.313.338 3.345.875zm-23.993-30.89c.069-1.61 1.387-2.87 2.997-2.87h14.34c1.61 0 2.928 1.26 2.997 2.87l.813 18.673-7.98 6.529v-10.291c2.937-.91 5-3.654 5-6.781v-1h-16v1c0 3.101 2.029 5.826 5 6.773v10.299l-7.979-6.529zm8.365 13.15-.098-.02c-2.041-.408-3.602-2.018-4-4h11.8c-.398 1.982-1.959 3.592-4 4l-.9.182v13.489c-.596.396-1.404.396-2 0v-13.489zm-7.116 9.794 6.511 5.327c.678.554 1.532.859 2.407.859s1.729-.305 2.407-.859l6.511-5.327 3.429 2.286-12.347 10.583-12.347-10.583zm-13.082 11.186c0-4.293 3.402-7.797 7.65-7.982l1.112.953c-.498 2.35-.762 4.752-.762 7.152v.877h-8zm2.586 3 4.515 4.515c-.206.108-.404.231-.589.374l-1.242.967-3.27-3.27v-2.586zm-.586 5.414 1.68 1.68-1.68 1.306zm-2 7.311c0-.149.067-.288.187-.38l7.555-5.876c.706-.548 1.743-.612 2.51-.151l8.651 5.19-.726 4.358-17.767-2.665c-.237-.036-.41-.236-.41-.476zm26 5.275h-3.764c-.904 0-1.707-.471-2.186-1.22l.797-4.78h2.739l4.376 4.376c-.177.923-.988 1.624-1.962 1.624zm4-2.414-8.586-8.586 1.586-1.586 8.586 8.586zm2.414-3.586 1.586-1.586v1.76c-.235.24-.45.495-.648.765zm9.586-3.677-1.515.606 1.515-1.515zm2 9.677h-10v-.938c0-2.056 1.233-3.878 3.143-4.642l5.931-2.372c.419-.169.926.169.926.629zm-2-13.414-6 6v-2.172l6-6z"/></g></g></svg>